# xmcd CD database file generated by LOLA_Freedb v0.9beta0
# 
# Track frame offsets:
#      150
#      17762
#      18849
#      40783
#      44624
#      58965
#      63943
#      80473
#      84835
#      88418
#      103965
#      104972
#      127092
#      143346
#      148550
#      163244
#      166813
#      188724
# 
# Disc length: 3885 seconds
# 
# Revision: 0 
# Processed by: cddbd v1.5.2PL0 Copyright (c) Steve Scherf et al.
# Submitted via: LOLA_Freedb v0.9beta0
# 
DISCID=fa0f2b12
DTITLE=Dietmar Wächtler - Madison Shuffle
DYEAR=2006
DGENRE=
TTITLE0=Unknown Movie Theme
TTITLE1=Runna Lap
TTITLE2=George Stait Medley
TTITLE3=Stadler Creek
TTITLE4=Madison Shuffle
TTITLE5=Ode To John
TTITLE6=Meant To Say
TTITLE7=Hubcap
TTITLE8=Dobrofunk
TTITLE9=Dobro Steels The Blues
TTITLE10=Jumpin´ Lap
TTITLE11=Killing Me  Softley With His Song
TTITLE12=Fryin´ Pan
TTITLE13=Ode To Jimmy
TTITLE14=Boot Steeltip Boogie
TTITLE15=Dog On My Lap
TTITLE16=Fast Twang Tang
TTITLE17=
EXTD=
EXTT0=
EXTT1=
EXTT2=
EXTT3=
EXTT4=
EXTT5=
EXTT6=
EXTT7=
EXTT8=
EXTT9=
EXTT10=
EXTT11=
EXTT12=
EXTT13=
EXTT14=
EXTT15=
EXTT16=
EXTT17=
PLAYORDER=
